<?xml version="1.0" encoding="utf-8"?>
<!-- Generator: Adobe Illustrator 15.1.0, SVG Export Plug-In . SVG Version: 6.00 Build 0)  -->
<!DOCTYPE svg PUBLIC "-//W3C//DTD SVG 1.1//EN" "http://www.w3.org/Graphics/SVG/1.1/DTD/svg11.dtd">
<svg version="1.1" xmlns="http://www.w3.org/2000/svg" xmlns:xlink="http://www.w3.org/1999/xlink" x="0px" y="0px" width="841.89px" height="595.28px" viewBox="0 0 841.89 595.28">
<g>
	<path fill="white" d="M421.665,218.239c-0.802,1.963,0.062,3.43,1.458,4.202c1.1,1.156,2.749,1.616,4.443,0.339
		c10.176-7.638,20.385-19.286,19.066-32.973c-1.385-14.344-38.655-44.479-12.122-54.803c4.005-1.56,3.77-7.915-1.071-7.898
		c-17.322,0.062-34.763,5.792-36.02,25.484C395.715,179.348,433.748,188.589,421.665,218.239z M414.406,171.974
		c-13.238-15.482-8.925-28.743,4.42-34.176c-2.468,4.499-2.917,10.083-0.998,16.933c1.828,6.535,5.946,12.375,9.974,17.681
		c9.626,12.708,12.229,24.292,4.235,35.08c0.196-6.658-1.24-13.401-4.33-19.115C424.2,181.895,419.129,177.499,414.406,171.974z"/>
	<path fill="white" d="M497.147,276.29c-3.411-15.841-2.962-38.891-21.854-40.835c-22.068-2.269-45.421-0.754-67.613-0.751
		c-12.217,0.002-31.239-3.113-42.873,1.576c-11.623,4.687-13.104,26.435-14.383,38.672c-11.404,2.468-17.761,9.632-9.498,23.925
		c0.096,0.161,0.225,0.23,0.326,0.37c0.174,0.256,0.37,0.472,0.6,0.68c0.168,0.137,0.326,0.264,0.5,0.364
		c0.24,0.149,0.51,0.255,0.808,0.345c0.224,0.062,0.442,0.107,0.667,0.127c0.202,0.021,0.354,0.109,0.572,0.106
		c1.615-0.021,3.22-0.003,4.836-0.017c6.535,44.018,11.869,88.199,18.197,132.246c1.593,11.09,0.225,25.31,12.582,29.865
		c7.107,2.613,16.678,1.172,24.07,1.278c11.882,0.18,23.763,0.286,35.644,0.247c9.121-0.033,25.456,2.659,32.542-5.104
		c7.69-8.442,7.527-30.28,9.379-41.018c0.062-0.358,0.112-0.724,0.174-1.089c0.045-0.219,0.101-0.426,0.106-0.656
		c6.501-38.049,11.304-76.363,17.418-114.475c0.561-0.017,1.122-0.017,1.683-0.039c1.391-0.047,2.373-0.682,3.018-1.551
		c0.348-0.381,0.651-0.833,0.864-1.399C509.881,285.75,506.661,278.887,497.147,276.29z M365.199,247.899
		c2.962-4.513,1.211-3.312,7.965-4.459c11.837-2.008,25.238-0.707,37.175-0.69c14.771,0.022,29.546,0.222,44.321,0.438
		c9.256,0.135,16.234-1.383,23.28,4.953c7.214,6.485,8.852,17.216,10.748,26.901c-18.198-0.945-36.519-1.161-54.738-1.164
		c-25.042-0.008-50.363-0.962-75.37,0.098C359.505,265.836,360.986,254.317,365.199,247.899z M369.462,281.958
		c10.799,0.02,21.597,0.182,32.401,0.174c12.555-0.011,25.098-0.266,37.646-0.182c11.271,0.079,22.528,0.32,33.787,0.698
		c5.379,0.18,10.781,0.154,16.149,0.463c8.718,0.497,10.979,3.184,8.661,11.023c-50.425,1.573-100.771-1.862-151.184-1.315
		C341.543,279.908,364.801,281.95,369.462,281.958z M474.529,412.51c-17.305,2.738-34.364,1.324-51.81,0.908
		c-16.767-0.393-33.422,0.045-50.155-1.211c-0.309-2.244-0.629-4.493-0.938-6.742c-3.191-23.426-6.305-46.863-9.514-70.291
		c41.31-1.859,83.011,2.729,124.135,0.02c-2.688,18.416-5.295,36.85-8.156,55.237C476.941,397.802,475.775,405.161,474.529,412.51z
		 M470.569,434.545c-0.797,4.128-0.785,12.251-3.107,15.941c-5.279,8.415-15.196,5.891-24.133,5.946
		c-15.292,0.09-35.004,2.743-49.97-0.403c-19.589-4.129-16.498-13.262-18.691-28.688c-0.331-2.322-0.646-4.639-0.965-6.956
		c31.807,2.603,67.545,5.104,99.346,0.403C472.235,425.379,471.455,429.967,470.569,434.545z M487.438,327.087
		c-41.881,2.911-84.374-1.935-126.457,0.079c-1.217-8.782-2.412-17.572-3.702-26.346c44.663-0.031,89.282,2.516,133.945,1.512
		C489.917,310.575,488.654,318.827,487.438,327.087z"/>
	<path fill="white" d="M448.916,347.539c-6.086-4.666-16.57-6.495-23.582-3.584c-15.303,6.204-32.609,22.365-33.624,39.812
		c-1.01,17.316,17.165,27.284,32.95,24.816c19.117-2.989,30.74-22.809,31.167-40.782
		C455.996,360.576,455.048,352.24,448.916,347.539z M402.828,374.421c5.026-9.554,14.557-18.624,24.643-22.708
		c1.465-0.611,3.136-0.908,4.858-0.976c-0.813,12.363-9.509,18.467-16.565,27.532c-4.544,5.834-7.158,12.178-7.786,19.402
		C400.461,393.207,397.566,384.439,402.828,374.421z M446.189,377.933c-3.275,11.241-12.896,22.909-25.725,22.887
		c-1.694-0.005-3.293-0.168-4.824-0.432c0.033-0.219,0.135-0.388,0.146-0.628c0.376-12.768,9.873-19.41,17.064-28.637
		c4.454-5.711,6.687-11.837,7.349-18.871c3.04,1.34,5.609,3.494,6.776,6.49C449.129,364.279,447.767,372.514,446.189,377.933z"/>
</g>
</svg>
